<svg id="svg" version="1.1" xmlns="http://www.w3.org/2000/svg" xmlns:xlink="http://www.w3.org/1999/xlink" width="50" height="50" viewBox="0, 0, 400,400"><g id="svgg"><path id="path0" d="M269.069 188.477 C 269.708 189.014,270.380 189.452,270.564 189.451 C 270.981 189.449,268.675 187.533,268.232 187.514 C 268.054 187.506,268.431 187.939,269.069 188.477 M272.266 190.872 C 272.266 191.096,273.452 192.424,274.902 193.824 C 276.353 195.224,277.539 196.465,277.539 196.581 C 277.539 196.972,279.085 198.506,279.878 198.902 C 280.339 199.131,280.179 198.860,279.492 198.248 C 278.848 197.673,278.320 197.058,278.320 196.882 C 278.320 196.705,276.958 195.190,275.293 193.514 C 273.628 191.838,272.266 190.649,272.266 190.872 M226.742 205.495 C 226.600 205.724,226.546 205.951,226.621 206.000 C 226.753 206.085,232.216 207.739,233.008 207.934 C 233.223 207.987,233.618 208.167,233.887 208.335 C 234.155 208.503,234.375 208.475,234.375 208.274 C 234.375 207.851,233.217 207.364,229.777 206.343 C 228.430 205.943,227.448 205.495,227.596 205.347 C 227.744 205.199,227.670 205.078,227.432 205.078 C 227.194 205.078,226.883 205.266,226.742 205.495 M235.804 209.200 C 235.923 209.511,236.178 209.766,236.370 209.766 C 237.092 209.766,237.319 209.844,237.832 210.270 C 238.507 210.830,239.531 210.990,239.221 210.487 C 239.091 210.276,238.893 210.195,238.782 210.307 C 238.670 210.418,238.322 210.253,238.008 209.939 C 237.694 209.625,237.275 209.468,237.078 209.590 C 236.880 209.712,236.719 209.644,236.719 209.440 C 236.719 209.235,236.464 208.970,236.153 208.851 C 235.774 208.706,235.659 208.821,235.804 209.200 M239.616 211.381 C 239.445 211.657,239.501 211.735,239.756 211.577 C 239.990 211.433,240.290 211.493,240.424 211.710 C 240.698 212.153,242.188 213.019,242.188 212.736 C 242.188 212.181,239.874 210.963,239.616 211.381 M288.281 214.219 C 288.281 214.883,288.919 215.394,289.190 214.948 C 289.290 214.783,289.126 214.422,288.826 214.145 C 288.379 213.731,288.281 213.744,288.281 214.219 M243.750 214.322 C 243.750 214.759,246.459 217.343,246.683 217.119 C 246.760 217.042,246.131 216.292,245.286 215.452 C 244.441 214.612,243.750 214.104,243.750 214.322 M247.748 218.899 C 248.120 219.182,248.325 219.513,248.203 219.636 C 248.080 219.758,248.352 220.057,248.806 220.300 C 249.260 220.543,249.511 220.936,249.365 221.174 C 249.203 221.435,249.277 221.494,249.551 221.325 C 250.074 221.002,248.245 218.351,247.512 218.372 C 247.269 218.379,247.375 218.616,247.748 218.899 M290.885 220.573 C 290.504 220.955,290.568 222.575,290.975 222.826 C 291.167 222.945,291.429 222.771,291.556 222.438 C 291.705 222.050,291.630 221.932,291.345 222.108 C 291.042 222.296,290.965 222.056,291.100 221.347 C 291.312 220.241,291.291 220.167,290.885 220.573 M249.841 221.816 C 249.729 221.998,249.989 222.525,250.419 222.988 C 250.850 223.450,251.086 223.828,250.944 223.828 C 250.802 223.828,250.881 224.064,251.121 224.352 C 251.360 224.641,251.471 224.994,251.367 225.137 C 251.263 225.280,251.372 225.236,251.609 225.038 C 252.068 224.656,250.925 222.266,250.283 222.266 C 250.102 222.266,250.063 222.090,250.195 221.875 C 250.328 221.660,250.349 221.484,250.241 221.484 C 250.134 221.484,249.954 221.634,249.841 221.816 M252.604 227.995 C 252.197 228.402,252.299 228.980,252.732 228.713 C 252.950 228.578,253.121 228.910,253.122 229.471 C 253.131 232.684,253.135 232.706,253.542 231.695 C 253.782 231.098,253.769 230.237,253.504 229.254 C 253.073 227.653,253.020 227.579,252.604 227.995 M292.338 228.297 C 292.219 228.607,292.190 229.178,292.274 229.567 C 292.370 230.008,292.504 229.797,292.630 229.004 C 292.843 227.674,292.705 227.340,292.338 228.297 M292.609 236.399 C 292.569 239.661,292.447 242.473,292.339 242.649 C 292.230 242.825,292.328 242.969,292.555 242.969 C 292.825 242.969,292.969 241.219,292.969 237.939 C 292.969 235.173,293.079 232.361,293.213 231.689 C 293.355 230.979,293.295 230.469,293.070 230.469 C 292.834 230.469,292.654 232.788,292.609 236.399 M253.802 232.813 C 253.670 233.350,253.528 235.195,253.487 236.914 C 253.446 238.633,253.216 240.293,252.975 240.602 C 252.642 241.032,252.655 241.096,253.027 240.872 C 253.338 240.686,253.516 240.809,253.516 241.211 C 253.516 241.559,253.376 241.756,253.205 241.651 C 253.033 241.545,252.902 242.132,252.912 242.956 C 252.932 244.622,253.512 244.706,253.522 243.043 C 253.525 242.465,253.711 241.729,253.936 241.406 C 254.236 240.975,254.274 241.181,254.080 242.188 C 253.934 242.939,253.946 243.429,254.106 243.276 C 254.479 242.920,254.643 234.106,254.301 232.813 L 254.043 231.836 253.802 232.813 M292.278 245.313 C 292.278 246.064,292.359 246.372,292.457 245.996 C 292.555 245.620,292.555 245.005,292.457 244.629 C 292.359 244.253,292.278 244.561,292.278 245.313 M252.227 245.439 C 252.380 246.145,252.335 246.190,251.961 245.703 C 251.597 245.228,251.561 245.293,251.774 246.045 C 251.951 246.671,251.898 246.887,251.609 246.708 C 251.341 246.543,251.268 246.670,251.413 247.050 C 251.541 247.383,251.458 247.656,251.227 247.656 C 250.475 247.656,249.844 249.271,250.448 249.653 C 250.838 249.900,250.849 249.990,250.488 249.994 C 250.220 249.997,250.000 250.188,250.000 250.419 C 250.000 251.053,248.966 251.953,248.595 251.642 C 248.415 251.491,248.526 251.709,248.841 252.126 C 249.156 252.543,249.213 252.764,248.967 252.616 C 248.721 252.469,248.414 252.622,248.286 252.957 C 248.157 253.291,247.888 253.463,247.686 253.339 C 247.484 253.214,247.217 253.278,247.092 253.481 C 246.966 253.684,247.218 253.962,247.651 254.100 C 248.668 254.423,248.644 254.761,247.559 255.438 C 246.750 255.941,246.723 255.932,247.224 255.327 C 247.806 254.622,247.590 254.050,246.901 254.476 C 246.672 254.618,246.484 255.104,246.484 255.557 C 246.484 256.010,246.369 256.265,246.227 256.123 C 245.874 255.770,244.879 256.645,245.145 257.076 C 245.262 257.266,244.997 257.444,244.554 257.471 C 242.987 257.566,242.048 258.052,242.383 258.594 C 242.497 258.779,242.409 259.043,242.188 259.180 C 241.966 259.317,241.870 259.568,241.975 259.738 C 242.080 259.908,241.687 259.995,241.102 259.933 C 240.143 259.830,240.107 259.869,240.731 260.330 C 241.365 260.798,241.342 260.840,240.445 260.840 C 239.874 260.840,239.571 260.673,239.716 260.438 C 239.860 260.204,239.773 260.154,239.507 260.318 C 239.256 260.474,239.169 260.794,239.316 261.031 C 239.486 261.307,239.350 261.372,238.936 261.213 C 238.538 261.061,238.326 261.147,238.384 261.440 C 238.435 261.701,238.171 261.890,237.797 261.861 C 237.424 261.831,237.196 261.933,237.290 262.086 C 237.554 262.512,234.450 263.764,233.929 263.442 C 233.625 263.255,233.579 263.332,233.790 263.673 C 234.026 264.055,233.892 264.129,233.264 263.965 C 232.800 263.844,232.514 263.896,232.628 264.081 C 232.743 264.265,232.084 264.612,231.164 264.851 C 230.245 265.089,228.877 265.448,228.125 265.648 C 227.373 265.848,226.011 266.012,225.098 266.013 C 224.185 266.015,223.438 266.147,223.438 266.309 C 223.438 266.470,206.529 266.553,185.862 266.494 C 145.458 266.379,145.364 266.383,139.169 268.404 C 137.832 268.841,136.576 269.098,136.378 268.976 C 136.181 268.854,135.911 269.037,135.778 269.382 C 135.626 269.780,135.253 269.936,134.760 269.807 C 134.333 269.696,134.063 269.733,134.160 269.890 C 134.419 270.309,130.883 271.936,130.383 271.627 C 130.128 271.469,130.069 271.545,130.236 271.815 C 130.501 272.243,130.047 272.427,129.033 272.302 C 128.781 272.270,128.446 272.453,128.289 272.706 C 128.110 272.996,128.172 273.064,128.455 272.889 C 129.131 272.471,128.999 272.984,128.223 273.790 C 127.847 274.181,127.144 274.467,126.660 274.425 C 126.177 274.383,125.870 274.438,125.978 274.545 C 126.234 274.802,124.990 276.172,124.501 276.172 C 124.285 276.172,124.308 275.949,124.555 275.651 C 124.880 275.259,124.853 275.130,124.443 275.130 C 124.143 275.130,123.952 275.412,124.018 275.755 C 124.231 276.857,120.817 280.024,120.108 279.383 C 119.937 279.228,119.911 279.301,120.050 279.546 C 120.352 280.074,119.392 280.981,118.974 280.563 C 118.815 280.404,118.743 280.537,118.815 280.859 C 118.887 281.184,118.714 281.397,118.428 281.338 C 118.143 281.279,118.009 281.390,118.130 281.586 C 118.407 282.034,115.651 285.218,115.218 284.951 C 115.042 284.842,114.771 284.959,114.615 285.210 C 114.439 285.496,114.502 285.563,114.783 285.389 C 115.031 285.236,115.234 285.275,115.234 285.476 C 115.234 285.969,114.241 286.767,113.968 286.494 C 113.848 286.374,113.776 286.507,113.809 286.790 C 113.900 287.597,110.797 292.164,110.274 291.991 C 110.011 291.904,109.894 292.068,110.007 292.363 C 110.119 292.653,109.995 293.023,109.732 293.185 C 109.406 293.386,109.355 293.317,109.570 292.969 C 109.775 292.638,109.733 292.552,109.452 292.726 C 109.214 292.873,109.104 293.216,109.208 293.488 C 109.313 293.760,107.904 296.220,106.079 298.953 C 104.253 301.687,102.753 304.051,102.745 304.208 C 102.716 304.744,117.852 304.883,174.805 304.868 C 230.713 304.853,233.031 304.810,237.891 303.694 C 238.428 303.570,239.366 303.379,239.975 303.269 C 242.916 302.735,251.079 299.696,254.378 297.906 C 257.068 296.446,258.070 296.143,257.580 296.935 C 257.406 297.217,257.473 297.280,257.759 297.104 C 258.010 296.948,258.125 296.674,258.013 296.493 C 257.902 296.313,259.086 295.327,260.644 294.301 C 267.984 289.471,274.685 283.015,280.816 274.868 C 281.973 273.329,283.057 272.070,283.225 272.070 C 283.392 272.070,283.675 271.910,283.854 271.715 C 284.046 271.505,283.959 271.487,283.641 271.671 C 283.270 271.886,283.163 271.814,283.299 271.441 C 283.407 271.143,283.688 270.940,283.921 270.991 C 284.155 271.043,284.246 270.821,284.122 270.498 C 283.846 269.779,284.700 268.663,285.261 269.010 C 285.485 269.148,285.555 269.078,285.416 268.855 C 285.278 268.631,285.880 266.922,286.755 265.057 C 287.629 263.191,288.244 261.404,288.122 261.086 C 288.000 260.767,288.059 260.605,288.253 260.725 C 288.448 260.845,288.900 260.062,289.258 258.984 C 289.616 257.907,290.058 257.118,290.242 257.231 C 290.425 257.344,290.410 256.863,290.209 256.162 C 289.766 254.618,289.756 254.336,290.168 254.984 C 290.575 255.625,291.921 249.996,291.576 249.097 C 291.043 247.708,290.521 248.454,290.739 250.293 C 290.860 251.313,290.883 251.968,290.789 251.748 C 290.695 251.527,289.917 251.414,289.059 251.496 C 287.687 251.627,287.500 251.546,287.500 250.822 L 287.500 250.000 269.922 250.000 L 252.344 250.000 252.344 249.023 C 252.344 248.486,252.388 247.915,252.441 247.754 C 252.495 247.593,252.671 247.505,252.832 247.559 C 253.340 247.728,253.149 246.949,252.637 246.761 C 252.246 246.618,252.246 246.479,252.637 246.064 C 253.268 245.395,253.254 245.055,252.583 244.798 C 252.195 244.649,252.094 244.830,252.227 245.439 M240.376 261.914 C 240.252 262.236,239.884 262.500,239.559 262.500 C 239.077 262.500,239.057 262.391,239.453 261.914 C 239.721 261.592,240.088 261.328,240.270 261.328 C 240.452 261.328,240.499 261.592,240.376 261.914 M149.707 265.894 C 150.083 265.993,150.698 265.993,151.074 265.894 C 151.450 265.796,151.143 265.716,150.391 265.716 C 149.639 265.716,149.331 265.796,149.707 265.894 M166.337 265.918 C 173.711 265.977,185.664 265.977,192.900 265.918 C 200.135 265.858,194.102 265.810,179.492 265.810 C 164.883 265.810,158.963 265.858,166.337 265.918 M208.894 265.908 C 209.596 265.995,210.650 265.993,211.237 265.904 C 211.824 265.815,211.250 265.744,209.961 265.746 C 208.672 265.748,208.192 265.821,208.894 265.908 M218.262 265.911 C 219.175 265.993,220.669 265.993,221.582 265.911 C 222.495 265.829,221.748 265.761,219.922 265.761 C 218.096 265.761,217.349 265.829,218.262 265.911 M177.251 267.065 C 176.877 267.163,176.174 267.167,175.688 267.073 C 175.202 266.980,175.508 266.900,176.367 266.895 C 177.227 266.891,177.624 266.967,177.251 267.065 M273.408 284.668 L 272.461 285.742 273.466 284.860 C 274.020 284.374,274.619 284.111,274.799 284.274 C 274.978 284.437,274.999 284.351,274.844 284.082 C 274.474 283.439,274.500 283.429,273.408 284.668 M268.398 289.217 C 267.715 289.944,267.635 290.219,268.037 290.451 C 268.322 290.616,268.421 290.603,268.258 290.424 C 268.095 290.244,268.345 289.688,268.815 289.189 C 269.284 288.690,269.580 288.281,269.472 288.281 C 269.365 288.281,268.881 288.702,268.398 289.217 M102.412 305.667 C 102.669 305.924,229.757 305.920,230.014 305.663 C 230.121 305.556,201.410 305.469,166.211 305.469 C 131.012 305.469,102.303 305.558,102.412 305.667 " stroke="none" fill="#1369c6" fill-rule="evenodd"></path><path id="path1" d="M147.461 85.583 C 137.632 85.732,131.603 85.980,130.469 86.280 C 126.375 87.366,123.469 88.407,123.662 88.719 C 123.776 88.903,123.613 88.955,123.300 88.835 C 122.988 88.715,122.006 88.988,121.118 89.441 C 120.231 89.893,119.364 90.177,119.192 90.071 C 119.021 89.965,118.880 90.117,118.880 90.410 C 118.880 90.716,119.142 90.859,119.499 90.746 C 120.022 90.581,120.030 90.613,119.550 90.953 C 119.238 91.174,118.849 91.272,118.686 91.171 C 118.523 91.070,117.372 91.516,116.128 92.162 C 114.885 92.807,114.219 93.313,114.648 93.285 C 116.666 93.157,119.166 93.393,118.979 93.695 C 118.865 93.879,119.961 94.141,121.414 94.276 C 126.618 94.760,136.732 98.249,136.064 99.330 C 135.919 99.565,136.010 99.611,136.284 99.441 C 136.799 99.123,138.614 100.511,142.548 104.231 C 143.928 105.536,145.200 106.515,145.376 106.406 C 145.551 106.298,145.602 106.449,145.490 106.743 C 145.368 107.060,146.471 108.411,148.208 110.073 C 150.360 112.132,151.090 113.081,150.977 113.672 C 150.890 114.120,150.988 114.371,151.199 114.241 C 151.406 114.113,151.451 113.801,151.299 113.547 C 150.938 112.946,152.169 113.870,153.969 115.551 C 154.857 116.381,155.582 116.773,155.884 116.586 C 156.179 116.404,156.272 116.446,156.119 116.692 C 155.778 117.244,156.881 118.108,157.465 117.747 C 157.754 117.568,157.831 117.623,157.667 117.889 C 157.355 118.392,158.734 119.247,159.191 118.834 C 159.361 118.680,159.385 118.756,159.245 119.002 C 158.969 119.484,160.013 120.057,160.555 119.721 C 160.736 119.610,161.011 119.724,161.166 119.976 C 161.343 120.261,161.280 120.329,160.998 120.154 C 160.750 120.001,160.547 119.971,160.547 120.088 C 160.547 120.533,164.560 122.308,165.099 122.101 C 165.415 121.980,165.560 122.054,165.427 122.270 C 165.296 122.482,165.385 122.656,165.625 122.656 C 165.865 122.656,165.953 122.831,165.821 123.046 C 165.661 123.304,165.923 123.305,166.602 123.047 C 167.280 122.789,167.542 122.789,167.382 123.048 C 167.130 123.455,167.881 123.609,169.531 123.487 C 170.242 123.435,170.361 123.513,169.969 123.774 C 169.225 124.268,172.991 125.058,174.693 124.765 C 175.678 124.595,175.840 124.642,175.391 124.967 C 174.968 125.273,181.721 125.364,199.670 125.293 C 213.346 125.239,224.443 125.345,224.330 125.527 C 224.217 125.710,225.096 125.798,226.284 125.722 C 227.492 125.646,228.347 125.740,228.226 125.936 C 228.107 126.128,228.469 126.197,229.032 126.090 C 229.665 125.969,229.961 126.045,229.810 126.290 C 229.664 126.526,229.870 126.606,230.322 126.488 C 230.737 126.379,231.313 126.542,231.601 126.850 C 231.889 127.158,232.465 127.321,232.881 127.213 C 233.533 127.042,233.567 127.101,233.128 127.634 C 232.669 128.190,232.717 128.201,233.594 127.745 C 234.131 127.466,234.448 127.369,234.299 127.530 C 234.149 127.691,235.072 128.520,236.350 129.374 C 237.628 130.227,239.308 131.699,240.084 132.646 C 240.859 133.593,241.648 134.272,241.836 134.155 C 242.024 134.039,242.063 134.245,241.921 134.614 C 241.733 135.105,241.803 135.199,242.181 134.965 C 242.522 134.754,242.605 134.796,242.426 135.087 C 242.276 135.330,242.436 136.016,242.781 136.612 C 243.126 137.208,243.301 137.349,243.168 136.926 C 243.036 136.503,243.069 136.299,243.241 136.473 C 243.414 136.647,243.573 137.081,243.595 137.438 C 243.704 139.218,243.777 139.482,244.104 139.280 C 244.299 139.160,244.361 139.435,244.241 139.893 C 244.100 140.430,244.251 140.851,244.668 141.084 C 245.181 141.371,245.311 142.060,245.307 144.453 C 245.301 147.938,244.990 149.564,244.483 148.763 C 244.226 148.358,244.151 148.387,244.147 148.893 C 244.143 149.251,244.331 149.608,244.563 149.685 C 244.842 149.778,244.753 150.417,244.298 151.573 C 243.411 153.828,242.576 155.123,242.172 154.873 C 241.995 154.764,241.724 154.881,241.568 155.132 C 241.392 155.418,241.455 155.485,241.737 155.311 C 243.317 154.334,240.508 158.119,238.086 160.231 C 236.859 161.300,236.482 161.051,237.530 159.863 L 238.477 158.789 237.414 159.725 C 236.830 160.239,236.448 160.816,236.565 161.005 C 236.794 161.376,235.217 162.856,234.570 162.878 C 234.355 162.885,233.066 163.418,231.705 164.062 C 226.598 166.478,228.071 166.406,183.699 166.406 C 142.879 166.406,139.681 166.503,137.158 167.820 C 136.264 168.286,136.233 168.361,136.914 168.402 C 137.344 168.428,136.992 168.585,136.133 168.751 C 135.273 168.917,134.482 168.941,134.375 168.804 C 134.268 168.667,133.916 168.508,133.594 168.451 C 133.145 168.372,133.168 168.474,133.691 168.885 C 134.083 169.193,134.375 169.945,134.375 170.649 C 134.375 171.323,134.551 171.875,134.766 171.875 C 134.980 171.875,135.156 172.151,135.156 172.489 C 135.156 173.278,136.097 174.219,136.886 174.219 C 137.308 174.219,137.500 173.852,137.500 173.047 L 137.500 171.875 143.750 171.875 L 150.000 171.875 150.000 173.438 L 150.000 175.000 153.125 175.000 L 156.250 175.000 156.250 173.438 L 156.250 171.875 175.000 171.875 C 193.490 171.875,193.750 171.886,193.750 172.656 C 193.750 173.372,194.010 173.438,196.875 173.438 L 200.000 173.438 200.000 171.094 L 200.000 168.750 202.344 168.750 L 204.688 168.750 204.688 170.313 L 204.688 171.875 207.813 171.875 L 210.938 171.875 210.938 170.313 C 210.938 169.010,211.068 168.750,211.719 168.750 C 212.370 168.750,212.500 169.010,212.500 170.313 L 212.500 171.875 214.453 171.875 C 216.146 171.875,216.406 171.979,216.406 172.656 C 216.406 173.086,216.582 173.438,216.797 173.438 C 217.012 173.438,217.188 173.086,217.188 172.656 C 217.188 171.949,217.448 171.875,219.922 171.875 L 222.656 171.875 222.656 173.438 C 222.656 174.297,222.832 175.000,223.047 175.000 C 223.262 175.000,223.438 174.297,223.438 173.438 L 223.438 171.875 226.172 171.875 L 228.906 171.875 228.906 173.438 C 228.906 174.297,229.082 175.000,229.297 175.000 C 229.512 175.000,229.688 174.297,229.688 173.438 L 229.688 171.875 232.422 171.875 L 235.156 171.875 235.156 173.438 L 235.156 175.000 237.109 175.000 L 239.063 175.000 239.063 173.438 L 239.063 171.875 241.406 171.875 C 243.490 171.875,243.750 171.962,243.750 172.656 C 243.750 173.177,244.010 173.438,244.531 173.438 C 245.052 173.438,245.313 173.698,245.313 174.219 C 245.313 174.870,245.573 175.000,246.875 175.000 L 248.438 175.000 248.438 173.438 L 248.438 171.875 251.172 171.875 L 253.906 171.875 253.906 173.438 C 253.906 174.913,253.971 175.000,255.078 175.000 C 256.185 175.000,256.250 175.087,256.250 176.563 L 256.250 178.125 258.594 178.125 C 260.677 178.125,260.938 178.038,260.938 177.344 C 260.938 176.823,261.198 176.563,261.719 176.563 C 262.240 176.563,262.500 176.823,262.500 177.344 C 262.500 178.021,262.760 178.125,264.453 178.125 C 266.146 178.125,266.406 178.229,266.406 178.906 C 266.406 179.935,267.826 179.935,269.141 178.906 C 270.395 177.925,270.680 177.932,270.417 178.939 C 270.300 179.387,269.795 179.940,269.294 180.168 C 268.793 180.396,268.477 180.733,268.590 180.916 C 268.990 181.563,269.796 181.238,270.344 180.208 C 270.649 179.636,271.338 178.707,271.875 178.145 C 273.710 176.225,274.996 174.620,275.096 174.126 C 275.151 173.855,275.284 173.545,275.392 173.438 C 277.797 171.046,282.697 158.756,282.851 154.729 L 282.890 153.711 283.203 154.688 L 283.516 155.664 283.555 154.613 C 283.576 154.035,283.445 153.470,283.263 153.357 C 283.081 153.245,283.071 152.312,283.240 151.283 C 283.409 150.255,283.594 147.041,283.651 144.141 L 283.755 138.867 283.984 144.336 L 284.213 149.805 284.294 145.074 C 284.387 139.645,284.063 136.384,283.511 137.179 C 283.270 137.525,283.236 137.398,283.406 136.794 C 283.721 135.678,283.244 131.960,282.820 132.222 C 282.650 132.327,282.419 132.063,282.307 131.636 C 282.178 131.142,282.257 130.953,282.525 131.118 C 282.795 131.285,282.852 131.134,282.684 130.696 C 282.540 130.321,282.422 129.755,282.422 129.437 C 282.422 129.100,282.234 128.976,281.971 129.139 C 281.707 129.302,281.625 129.247,281.774 129.007 C 282.125 128.439,281.625 126.136,281.207 126.394 C 281.021 126.509,280.960 126.365,281.071 126.074 C 281.183 125.783,281.000 124.887,280.664 124.083 C 280.328 123.279,280.174 122.427,280.321 122.188 C 280.484 121.925,280.412 121.864,280.138 122.033 C 279.890 122.186,279.688 122.115,279.688 121.875 C 279.688 121.635,279.542 121.528,279.364 121.638 C 279.186 121.748,279.060 121.244,279.084 120.519 C 279.108 119.793,279.002 119.277,278.848 119.372 C 278.694 119.467,278.007 118.491,277.320 117.202 C 276.633 115.914,275.948 114.936,275.796 115.030 C 275.645 115.123,275.521 114.983,275.521 114.717 C 275.521 113.890,274.155 112.103,273.725 112.368 C 273.483 112.518,273.434 112.431,273.605 112.155 C 274.076 111.392,265.972 101.867,265.366 102.473 C 265.032 102.807,264.014 101.958,264.264 101.553 C 264.370 101.381,263.533 100.502,262.404 99.598 C 261.275 98.695,260.390 97.816,260.437 97.646 C 260.484 97.476,260.097 97.384,259.577 97.441 C 259.050 97.499,258.666 97.353,258.710 97.112 C 258.753 96.874,258.494 96.677,258.133 96.675 C 257.772 96.672,257.333 96.512,257.156 96.319 C 256.969 96.115,257.080 96.101,257.422 96.286 C 257.744 96.461,257.656 96.246,257.227 95.809 C 256.797 95.371,256.270 95.036,256.055 95.065 C 255.840 95.094,255.700 94.921,255.744 94.682 C 255.792 94.418,255.363 94.301,254.650 94.384 C 253.957 94.465,253.572 94.365,253.711 94.140 C 253.841 93.931,253.155 93.375,252.188 92.905 C 251.221 92.435,250.536 91.878,250.666 91.668 C 250.796 91.458,250.716 91.400,250.490 91.540 C 250.263 91.680,248.811 91.256,247.264 90.598 C 245.717 89.939,244.196 89.498,243.885 89.618 C 243.573 89.737,243.411 89.685,243.524 89.503 C 243.762 89.117,239.499 87.795,234.289 86.640 C 230.841 85.875,229.250 85.830,201.758 85.712 C 185.859 85.644,172.500 85.573,172.070 85.555 C 171.641 85.537,169.461 85.522,167.227 85.522 C 164.993 85.521,163.059 85.483,162.930 85.436 C 162.801 85.390,155.840 85.456,147.461 85.583 M244.668 144.531 C 244.668 146.357,244.735 147.104,244.817 146.191 C 244.900 145.278,244.900 143.784,244.817 142.871 C 244.735 141.958,244.668 142.705,244.668 144.531 M283.837 150.601 C 283.703 150.950,283.614 151.705,283.639 152.278 C 283.672 153.059,283.760 152.928,283.988 151.758 C 284.312 150.097,284.240 149.551,283.837 150.601 M240.636 156.432 C 240.367 156.757,239.992 156.928,239.804 156.811 C 239.616 156.695,239.562 156.859,239.683 157.176 C 239.866 157.653,240.039 157.617,240.688 156.968 C 241.119 156.538,241.394 156.107,241.299 156.013 C 241.204 155.918,240.906 156.106,240.636 156.432 M233.203 162.500 C 232.451 162.912,231.977 163.256,232.148 163.265 C 232.562 163.287,234.766 162.141,234.766 161.904 C 234.766 161.648,234.743 161.657,233.203 162.500 M149.902 165.517 C 150.601 165.604,151.743 165.604,152.441 165.517 C 153.140 165.430,152.568 165.359,151.172 165.359 C 149.775 165.359,149.204 165.430,149.902 165.517 M160.449 165.510 C 160.933 165.603,161.724 165.603,162.207 165.510 C 162.690 165.417,162.295 165.341,161.328 165.341 C 160.361 165.341,159.966 165.417,160.449 165.510 M168.266 165.511 C 168.752 165.604,169.455 165.601,169.829 165.503 C 170.202 165.405,169.805 165.329,168.945 165.333 C 168.086 165.337,167.780 165.417,168.266 165.511 M172.949 165.510 C 173.433 165.603,174.224 165.603,174.707 165.510 C 175.190 165.417,174.795 165.341,173.828 165.341 C 172.861 165.341,172.466 165.417,172.949 165.510 M205.469 165.703 C 205.469 165.875,206.392 165.995,207.520 165.970 C 209.650 165.923,209.446 165.770,206.934 165.531 C 206.128 165.454,205.469 165.532,205.469 165.703 M211.463 165.723 C 211.363 165.884,211.996 166.016,212.868 166.016 C 213.740 166.016,214.453 165.884,214.453 165.723 C 214.453 165.562,213.821 165.430,213.049 165.430 C 212.276 165.430,211.563 165.562,211.463 165.723 M220.987 165.516 C 221.681 165.603,222.911 165.604,223.722 165.519 C 224.532 165.435,223.965 165.364,222.461 165.363 C 220.957 165.361,220.294 165.430,220.987 165.516 M215.532 165.901 C 216.018 165.995,216.721 165.991,217.094 165.893 C 217.468 165.796,217.070 165.719,216.211 165.724 C 215.352 165.728,215.046 165.808,215.532 165.901 M155.371 167.077 C 154.780 167.166,153.813 167.166,153.223 167.077 C 152.632 166.987,153.115 166.914,154.297 166.914 C 155.479 166.914,155.962 166.987,155.371 167.077 M129.590 170.039 C 128.135 170.614,128.239 170.915,129.931 171.029 C 131.040 171.104,131.298 171.000,131.124 170.549 C 131.003 170.232,131.113 169.887,131.370 169.783 C 131.650 169.669,131.602 169.597,131.250 169.604 C 130.928 169.610,130.181 169.805,129.590 170.039 M126.172 172.438 C 126.172 172.778,125.841 173.047,125.423 173.047 C 124.402 173.047,123.438 173.447,123.438 173.870 C 123.438 174.062,123.789 174.219,124.219 174.219 C 124.648 174.219,125.000 174.033,125.000 173.805 C 125.000 173.578,125.152 173.486,125.338 173.601 C 125.525 173.716,125.975 173.480,126.340 173.076 C 126.776 172.596,126.861 172.255,126.588 172.086 C 126.359 171.945,126.172 172.103,126.172 172.438 M162.500 173.047 C 162.500 173.262,162.852 173.438,163.281 173.438 C 163.711 173.438,164.063 173.262,164.063 173.047 C 164.063 172.832,163.711 172.656,163.281 172.656 C 162.852 172.656,162.500 172.832,162.500 173.047 " stroke="none" fill="#1bbdd8" fill-rule="evenodd"></path><path id="path2" d="M114.737 93.641 C 115.431 93.728,116.661 93.729,117.472 93.644 C 118.282 93.560,117.715 93.489,116.211 93.488 C 114.707 93.486,114.044 93.555,114.737 93.641 M209.863 166.285 C 210.239 166.383,210.854 166.383,211.230 166.285 C 211.606 166.187,211.299 166.106,210.547 166.106 C 209.795 166.106,209.487 166.187,209.863 166.285 M263.430 187.810 C 256.829 193.965,248.284 198.864,238.281 202.229 C 236.025 202.988,233.916 203.703,233.594 203.818 C 233.271 203.932,232.681 203.985,232.282 203.934 C 231.844 203.879,231.659 204.011,231.817 204.267 C 232.154 204.812,234.530 204.774,199.086 204.795 C 182.363 204.804,168.935 204.955,169.246 205.130 C 169.952 205.525,226.098 205.623,227.119 205.231 C 227.560 205.061,227.769 205.097,227.632 205.318 C 227.506 205.523,228.575 206.018,230.010 206.417 C 234.333 207.622,239.830 210.666,243.541 213.911 C 246.637 216.618,247.081 217.176,246.899 218.133 C 246.862 218.330,247.148 218.248,247.537 217.950 C 247.925 217.652,248.115 217.559,247.960 217.743 C 247.804 217.927,248.167 218.713,248.767 219.488 C 251.243 222.693,252.931 226.594,254.025 231.641 C 254.596 234.275,254.659 242.748,254.112 243.271 C 253.948 243.427,253.934 242.939,254.080 242.188 C 254.274 241.181,254.236 240.975,253.936 241.406 C 253.711 241.729,253.525 242.465,253.522 243.043 C 253.518 243.621,253.337 244.205,253.119 244.340 C 252.900 244.475,252.828 244.757,252.957 244.966 C 253.086 245.175,252.957 245.631,252.670 245.979 C 252.261 246.476,252.253 246.647,252.637 246.776 C 252.905 246.866,253.125 247.101,253.125 247.298 C 253.125 247.495,252.993 247.612,252.832 247.559 C 252.462 247.435,252.344 247.791,252.344 249.023 L 252.344 250.000 269.922 250.000 L 287.500 250.000 287.500 250.822 C 287.500 251.546,287.687 251.627,289.059 251.496 C 289.917 251.414,290.695 251.527,290.789 251.748 C 290.883 251.968,290.860 251.313,290.739 250.293 C 290.590 249.039,290.663 248.438,290.963 248.438 C 291.207 248.438,291.428 248.657,291.455 248.926 C 291.482 249.194,291.728 248.096,292.000 246.484 C 293.041 240.329,292.397 224.642,291.030 222.852 C 290.866 222.637,290.612 221.680,290.466 220.726 C 290.135 218.561,289.083 215.293,288.625 215.010 C 288.436 214.893,288.281 214.536,288.281 214.215 C 288.281 213.895,287.316 211.689,286.136 209.313 C 284.957 206.936,284.105 204.809,284.244 204.584 C 284.386 204.354,284.309 204.292,284.066 204.442 C 283.514 204.783,280.333 200.145,280.705 199.542 C 280.862 199.289,280.808 199.205,280.578 199.346 C 280.357 199.483,278.909 198.191,277.359 196.475 C 275.808 194.757,274.354 193.471,274.125 193.613 C 273.895 193.755,273.816 193.695,273.949 193.480 C 274.082 193.264,273.676 192.595,273.047 191.992 C 272.418 191.389,271.982 190.767,272.080 190.609 C 272.177 190.452,271.951 190.083,271.578 189.790 C 270.963 189.308,270.949 189.323,271.435 189.941 C 271.729 190.317,271.812 190.625,271.619 190.625 C 271.190 190.625,269.742 189.004,269.733 188.514 C 269.730 188.319,269.375 188.109,268.945 188.046 C 268.516 187.983,267.749 187.439,267.242 186.837 C 266.735 186.235,266.437 185.960,266.579 186.226 C 266.750 186.547,266.634 186.632,266.233 186.478 C 265.901 186.351,265.727 186.089,265.846 185.897 C 266.251 185.240,265.820 185.582,263.430 187.810 M134.375 188.086 C 135.659 188.820,136.293 188.828,135.329 188.098 C 134.912 187.783,134.307 187.525,133.984 187.526 C 133.645 187.527,133.809 187.762,134.375 188.086 M140.430 191.264 C 140.645 191.453,141.435 192.134,142.186 192.776 L 143.552 193.945 142.577 192.835 C 142.040 192.225,141.250 191.544,140.820 191.323 C 140.391 191.101,140.215 191.075,140.430 191.264 M143.789 193.979 C 143.974 194.483,147.957 198.047,148.333 198.047 C 148.477 198.047,148.427 197.900,148.223 197.721 C 148.019 197.542,146.902 196.531,145.742 195.475 C 144.581 194.419,143.702 193.746,143.789 193.979 M150.781 199.817 C 153.198 201.349,156.285 202.829,156.537 202.577 C 156.629 202.486,156.031 202.096,155.208 201.711 C 154.384 201.326,152.715 200.432,151.497 199.724 C 148.567 198.022,148.054 198.088,150.781 199.817 M159.455 203.700 C 159.771 204.045,163.889 205.063,165.007 205.072 C 166.334 205.083,165.400 204.674,163.237 204.298 C 162.080 204.097,160.693 203.813,160.156 203.666 C 159.619 203.520,159.303 203.535,159.455 203.700 M239.844 211.861 C 239.844 211.968,240.371 212.432,241.016 212.891 C 241.660 213.350,242.188 213.637,242.188 213.530 C 242.188 213.422,241.660 212.959,241.016 212.500 C 240.371 212.041,239.844 211.753,239.844 211.861 M244.727 216.016 C 245.566 216.875,246.340 217.578,246.448 217.578 C 246.555 217.578,245.956 216.875,245.117 216.016 C 244.278 215.156,243.504 214.453,243.396 214.453 C 243.289 214.453,243.887 215.156,244.727 216.016 M293.509 237.695 C 293.509 240.273,293.572 241.277,293.649 239.926 C 293.725 238.575,293.725 236.466,293.648 235.239 C 293.570 234.012,293.508 235.117,293.509 237.695 M244.922 255.664 C 243.973 256.631,243.285 257.422,243.392 257.422 C 243.499 257.422,244.364 256.631,245.313 255.664 C 246.261 254.697,246.950 253.906,246.842 253.906 C 246.735 253.906,245.871 254.697,244.922 255.664 M247.351 255.087 C 246.893 255.820,246.915 255.841,247.647 255.384 C 248.082 255.112,248.438 254.757,248.438 254.594 C 248.438 254.030,247.842 254.300,247.351 255.087 M239.453 261.914 C 239.057 262.391,239.077 262.500,239.559 262.500 C 239.884 262.500,240.252 262.236,240.376 261.914 C 240.499 261.592,240.452 261.328,240.270 261.328 C 240.088 261.328,239.721 261.592,239.453 261.914 M213.184 265.908 C 213.882 265.994,215.024 265.994,215.723 265.908 C 216.421 265.821,215.850 265.750,214.453 265.750 C 213.057 265.750,212.485 265.821,213.184 265.908 M175.688 267.073 C 176.174 267.167,176.877 267.163,177.251 267.065 C 177.624 266.967,177.227 266.891,176.367 266.895 C 175.508 266.900,175.202 266.980,175.688 267.073 " stroke="none" fill="#147ccc" fill-rule="evenodd"></path><path id="path3" d="M183.121 85.836 C 184.472 85.913,186.581 85.912,187.808 85.835 C 189.035 85.758,187.930 85.695,185.352 85.696 C 182.773 85.697,181.770 85.760,183.121 85.836 M200.488 85.831 C 201.294 85.916,202.612 85.916,203.418 85.831 C 204.224 85.747,203.564 85.678,201.953 85.678 C 200.342 85.678,199.683 85.747,200.488 85.831 M206.738 85.816 C 207.114 85.914,207.729 85.914,208.105 85.816 C 208.481 85.718,208.174 85.638,207.422 85.638 C 206.670 85.638,206.362 85.718,206.738 85.816 M210.645 85.831 C 211.450 85.916,212.769 85.916,213.574 85.831 C 214.380 85.747,213.721 85.678,212.109 85.678 C 210.498 85.678,209.839 85.747,210.645 85.831 M283.570 144.173 C 283.558 147.056,283.409 150.255,283.240 151.283 C 283.071 152.312,283.063 153.233,283.222 153.332 C 283.819 153.701,284.360 139.698,283.772 139.110 C 283.674 139.012,283.583 141.291,283.570 144.173 M244.855 144.198 C 244.926 145.942,244.808 147.519,244.584 147.788 C 244.365 148.052,244.327 148.497,244.499 148.777 C 244.727 149.144,244.881 149.032,245.058 148.373 C 245.402 147.086,245.372 141.490,245.020 141.270 C 244.858 141.170,244.784 142.487,244.855 144.198 M244.141 150.313 C 244.141 150.699,243.930 151.227,243.672 151.484 C 243.414 151.742,243.322 151.953,243.466 151.953 C 243.611 151.953,243.207 152.840,242.568 153.923 C 241.929 155.007,241.406 155.976,241.406 156.077 C 241.406 156.178,240.333 157.268,239.022 158.499 C 233.150 164.012,229.194 165.366,217.589 165.832 C 210.098 166.133,210.212 166.345,217.884 166.384 C 224.897 166.420,227.724 165.945,231.705 164.062 C 233.066 163.418,234.355 162.888,234.570 162.885 C 235.543 162.868,240.727 157.794,242.346 155.273 C 244.181 152.416,245.264 149.609,244.531 149.609 C 244.316 149.609,244.141 149.926,244.141 150.313 M282.843 154.729 C 282.723 158.687,277.803 171.039,275.392 173.438 C 275.284 173.545,275.151 173.855,275.096 174.126 C 274.996 174.620,273.710 176.225,271.875 178.145 C 271.338 178.707,270.649 179.636,270.344 180.208 C 269.796 181.238,268.990 181.563,268.590 180.916 C 268.477 180.733,268.793 180.396,269.294 180.168 C 269.795 179.940,270.300 179.387,270.417 178.939 C 270.680 177.932,270.395 177.925,269.141 178.906 C 267.826 179.935,266.406 179.935,266.406 178.906 C 266.406 178.229,266.146 178.125,264.453 178.125 C 262.760 178.125,262.500 178.021,262.500 177.344 C 262.500 176.823,262.240 176.563,261.719 176.563 C 261.198 176.563,260.938 176.823,260.938 177.344 C 260.938 178.038,260.677 178.125,258.594 178.125 L 256.250 178.125 256.250 176.563 C 256.250 175.087,256.185 175.000,255.078 175.000 C 253.971 175.000,253.906 174.913,253.906 173.438 L 253.906 171.875 251.172 171.875 L 248.438 171.875 248.438 173.438 L 248.438 175.000 246.875 175.000 C 245.573 175.000,245.313 174.870,245.313 174.219 C 245.313 173.698,245.052 173.438,244.531 173.438 C 244.010 173.438,243.750 173.177,243.750 172.656 C 243.750 171.962,243.490 171.875,241.406 171.875 L 239.063 171.875 239.063 173.438 L 239.063 175.000 237.109 175.000 L 235.156 175.000 235.156 173.438 L 235.156 171.875 232.422 171.875 L 229.688 171.875 229.688 173.438 C 229.688 174.297,229.512 175.000,229.297 175.000 C 229.082 175.000,228.906 174.297,228.906 173.438 L 228.906 171.875 226.172 171.875 L 223.438 171.875 223.438 173.438 C 223.438 174.297,223.262 175.000,223.047 175.000 C 222.832 175.000,222.656 174.297,222.656 173.438 L 222.656 171.875 219.922 171.875 C 217.448 171.875,217.188 171.949,217.188 172.656 C 217.188 173.086,217.012 173.438,216.797 173.438 C 216.582 173.438,216.406 173.086,216.406 172.656 C 216.406 171.979,216.146 171.875,214.453 171.875 L 212.500 171.875 212.500 170.313 C 212.500 169.010,212.370 168.750,211.719 168.750 C 211.068 168.750,210.938 169.010,210.938 170.313 L 210.938 171.875 207.813 171.875 L 204.688 171.875 204.688 170.313 L 204.688 168.750 202.344 168.750 L 200.000 168.750 200.000 171.094 L 200.000 173.438 196.875 173.438 C 194.010 173.438,193.750 173.372,193.750 172.656 C 193.750 171.886,193.490 171.875,175.000 171.875 L 156.250 171.875 156.250 173.438 L 156.250 175.000 153.125 175.000 L 150.000 175.000 150.000 173.438 L 150.000 171.875 143.750 171.875 L 137.500 171.875 137.500 173.047 C 137.500 173.852,137.308 174.219,136.886 174.219 C 136.097 174.219,135.156 173.278,135.156 172.489 C 135.156 172.151,134.980 171.875,134.766 171.875 C 134.551 171.875,134.375 171.323,134.375 170.649 C 134.375 169.945,134.083 169.193,133.691 168.885 C 133.168 168.474,133.145 168.372,133.594 168.451 C 133.916 168.508,134.268 168.667,134.375 168.804 C 134.482 168.941,135.273 168.917,136.133 168.751 C 136.992 168.585,137.344 168.428,136.914 168.402 C 136.233 168.361,136.264 168.286,137.158 167.820 C 139.610 166.540,143.056 166.414,175.988 166.391 C 194.028 166.379,209.404 166.229,210.156 166.058 C 211.204 165.819,210.792 165.752,208.398 165.772 C 206.680 165.786,191.299 165.750,174.219 165.692 C 154.340 165.623,142.336 165.729,140.862 165.984 C 139.596 166.204,138.422 166.298,138.252 166.193 C 138.083 166.089,137.844 166.166,137.720 166.366 C 137.597 166.566,136.794 166.848,135.935 166.993 C 135.077 167.138,134.375 167.427,134.375 167.636 C 134.375 167.844,134.212 167.914,134.014 167.792 C 133.599 167.535,131.586 168.343,131.158 168.937 C 131.000 169.157,130.869 169.183,130.865 168.995 C 130.862 168.808,130.640 168.837,130.371 169.060 C 129.888 169.460,129.668 169.531,128.906 169.531 C 128.691 169.531,128.516 169.728,128.516 169.967 C 128.516 170.238,128.849 170.303,129.395 170.137 C 130.775 169.719,131.882 169.500,131.370 169.747 C 131.113 169.871,131.006 170.241,131.132 170.568 C 131.424 171.329,128.921 171.179,128.314 170.400 C 127.996 169.991,127.744 170.050,127.052 170.695 C 126.576 171.138,126.084 171.481,125.958 171.458 C 125.650 171.400,123.828 172.781,123.828 173.072 C 123.828 173.199,124.355 173.225,125.000 173.130 C 125.682 173.030,126.172 172.722,126.172 172.394 C 126.172 172.083,126.359 171.945,126.588 172.086 C 126.861 172.255,126.776 172.596,126.340 173.076 C 125.975 173.480,125.525 173.716,125.338 173.601 C 125.152 173.486,125.000 173.578,125.000 173.805 C 125.000 174.455,123.509 174.288,123.368 173.622 C 123.137 172.530,121.443 174.078,121.646 175.196 C 121.774 175.900,121.672 176.070,121.226 175.898 C 120.797 175.734,120.764 175.595,121.103 175.385 C 121.439 175.177,121.447 175.023,121.133 174.829 C 120.893 174.681,120.593 174.834,120.464 175.168 C 120.336 175.503,120.073 175.680,119.881 175.561 C 119.689 175.442,119.531 175.531,119.531 175.758 C 119.531 175.986,119.268 176.172,118.945 176.172 C 118.623 176.172,118.008 176.523,117.578 176.953 C 117.148 177.383,116.793 177.603,116.788 177.441 C 116.783 177.280,116.417 177.588,115.973 178.125 C 115.529 178.662,115.282 178.838,115.424 178.516 C 115.566 178.193,115.210 178.457,114.634 179.102 C 114.058 179.746,113.704 180.054,113.847 179.785 C 114.244 179.045,113.489 179.201,112.755 180.012 C 112.399 180.406,112.240 180.873,112.401 181.051 C 112.563 181.230,112.451 181.234,112.153 181.061 C 111.795 180.853,111.354 181.064,110.850 181.682 C 110.431 182.196,110.213 182.379,110.366 182.088 C 110.555 181.728,110.317 181.773,109.618 182.231 C 109.055 182.600,108.594 183.058,108.594 183.248 C 108.594 183.438,108.462 183.555,108.301 183.507 C 107.870 183.379,105.859 184.794,105.859 185.224 C 105.859 185.427,106.017 185.496,106.210 185.376 C 106.515 185.188,113.143 185.105,117.773 185.231 C 118.633 185.255,119.775 185.148,120.313 184.994 C 121.064 184.779,121.154 184.811,120.703 185.132 C 120.136 185.537,120.768 185.592,125.879 185.581 C 126.470 185.579,126.953 185.766,126.953 185.996 C 126.953 186.243,127.341 186.315,127.906 186.174 C 128.430 186.042,128.958 186.095,129.079 186.292 C 129.201 186.489,129.734 186.602,130.264 186.544 C 130.808 186.484,131.126 186.603,130.995 186.816 C 130.855 187.042,131.097 187.087,131.602 186.926 C 132.154 186.751,132.405 186.817,132.334 187.117 C 132.275 187.369,132.631 187.732,133.125 187.923 C 133.700 188.145,133.939 188.133,133.787 187.888 C 133.652 187.669,133.986 187.541,134.571 187.590 C 135.522 187.668,135.543 187.710,134.885 188.213 C 134.237 188.709,134.255 188.730,135.108 188.475 C 135.742 188.285,135.951 188.334,135.768 188.630 C 135.621 188.868,135.731 189.083,136.012 189.108 C 136.293 189.132,136.699 189.193,136.914 189.243 C 137.129 189.293,137.535 189.361,137.816 189.394 C 138.097 189.426,138.230 189.610,138.111 189.803 C 137.919 190.113,138.698 190.629,139.297 190.588 C 139.422 190.580,139.785 190.892,140.104 191.283 C 140.422 191.673,140.561 191.755,140.412 191.465 C 139.973 190.614,141.441 191.543,142.577 192.835 L 143.552 193.945 142.284 192.798 C 141.586 192.167,141.016 191.763,141.016 191.899 C 141.016 192.390,143.534 194.490,143.737 194.169 C 143.852 193.989,145.000 194.815,146.289 196.005 C 147.578 197.195,148.369 198.020,148.047 197.838 C 147.543 197.553,147.536 197.598,147.993 198.163 C 148.286 198.524,148.680 198.724,148.869 198.608 C 149.057 198.491,150.277 199.020,151.580 199.784 C 152.882 200.547,154.104 201.172,154.295 201.172 C 154.485 201.172,154.762 201.366,154.909 201.604 C 155.092 201.901,154.885 201.947,154.248 201.751 C 153.738 201.594,153.461 201.613,153.632 201.794 C 153.804 201.974,154.463 202.128,155.096 202.135 C 155.729 202.142,156.233 202.305,156.215 202.495 C 156.179 202.890,157.032 203.504,157.617 203.504 C 157.832 203.504,157.744 203.333,157.422 203.125 C 156.708 202.664,157.325 202.664,158.398 203.125 C 158.925 203.351,158.988 203.472,158.594 203.494 C 158.080 203.523,158.079 203.572,158.583 203.892 C 158.949 204.123,159.250 204.109,159.408 203.854 C 159.578 203.578,160.135 203.580,161.176 203.858 C 162.011 204.082,163.398 204.386,164.258 204.534 C 165.694 204.781,165.741 204.827,164.844 205.097 C 164.067 205.331,164.267 205.408,165.820 205.474 C 166.895 205.520,168.301 205.616,168.945 205.687 C 169.979 205.800,170.038 205.756,169.442 205.312 C 168.889 204.900,174.168 204.816,198.543 204.846 C 231.685 204.887,230.633 204.958,238.672 202.142 C 246.191 199.508,254.297 195.435,254.297 194.292 C 254.297 193.795,254.789 193.574,255.592 193.712 C 256.211 193.819,258.209 192.122,257.952 191.707 C 257.794 191.451,257.876 191.399,258.159 191.575 C 258.906 192.036,266.227 185.814,265.782 185.095 C 265.674 184.919,265.818 184.864,266.104 184.974 C 266.553 185.146,268.306 183.553,271.753 179.840 C 272.223 179.334,273.447 177.730,274.474 176.276 C 275.500 174.822,276.493 173.525,276.680 173.394 C 276.867 173.262,277.003 173.042,276.983 172.904 C 276.962 172.765,277.533 171.467,278.251 170.018 C 280.960 164.551,283.670 155.719,283.089 154.252 C 282.971 153.955,282.860 154.169,282.843 154.729 M153.223 167.077 C 153.813 167.166,154.780 167.166,155.371 167.077 C 155.962 166.987,155.479 166.914,154.297 166.914 C 153.115 166.914,152.632 166.987,153.223 167.077 M164.063 173.047 C 164.063 173.262,163.711 173.438,163.281 173.438 C 162.852 173.438,162.500 173.262,162.500 173.047 C 162.500 172.832,162.852 172.656,163.281 172.656 C 163.711 172.656,164.063 172.832,164.063 173.047 M266.069 185.670 C 266.147 185.714,266.647 186.100,267.181 186.528 C 267.768 186.998,267.962 187.060,267.672 186.683 C 267.409 186.341,267.273 185.982,267.369 185.886 C 267.466 185.789,267.181 185.683,266.736 185.650 C 266.291 185.616,265.991 185.625,266.069 185.670 M274.043 192.208 C 275.090 193.271,276.033 194.141,276.139 194.141 C 276.244 194.141,275.676 193.470,274.876 192.651 C 274.076 191.832,273.520 191.063,273.640 190.943 C 273.761 190.823,273.472 190.623,272.999 190.499 C 272.352 190.330,272.610 190.753,274.043 192.208 M144.531 195.271 C 144.531 195.463,144.806 195.725,145.142 195.854 C 145.484 195.985,145.629 196.288,145.472 196.542 C 145.293 196.833,145.363 196.890,145.668 196.701 C 146.026 196.480,145.978 196.222,145.473 195.664 C 144.725 194.838,144.531 194.757,144.531 195.271 M149.415 199.221 C 149.677 199.644,151.953 200.912,151.953 200.635 C 151.953 200.543,151.327 200.099,150.562 199.647 C 149.798 199.196,149.281 199.004,149.415 199.221 M173.741 205.755 C 174.660 205.838,176.066 205.837,176.866 205.753 C 177.666 205.669,176.914 205.601,175.195 205.603 C 173.477 205.604,172.822 205.673,173.741 205.755 M199.316 205.758 C 200.767 205.834,203.140 205.834,204.590 205.758 C 206.040 205.683,204.854 205.622,201.953 205.622 C 199.053 205.622,197.866 205.683,199.316 205.758 M208.887 205.755 C 209.800 205.837,211.294 205.837,212.207 205.755 C 213.120 205.673,212.373 205.605,210.547 205.605 C 208.721 205.605,207.974 205.673,208.887 205.755 M216.309 205.758 C 217.651 205.834,219.849 205.834,221.191 205.758 C 222.534 205.682,221.436 205.619,218.750 205.619 C 216.064 205.619,214.966 205.682,216.309 205.758 " stroke="none" fill="#1ba4d8" fill-rule="evenodd"></path><path id="path4" d="M286.789 210.059 C 286.863 210.220,287.341 211.280,287.851 212.414 C 288.361 213.549,288.850 214.405,288.938 214.317 C 289.124 214.132,287.107 209.766,286.836 209.766 C 286.736 209.766,286.714 209.897,286.789 210.059 M238.281 210.279 C 238.281 210.375,238.927 210.946,239.715 211.548 C 240.504 212.150,241.026 212.442,240.875 212.198 C 240.566 211.698,238.281 210.007,238.281 210.279 M241.406 212.655 C 241.406 212.755,241.978 213.238,242.676 213.728 C 243.577 214.359,243.784 214.418,243.392 213.928 C 242.832 213.232,241.406 212.317,241.406 212.655 M290.234 218.205 C 290.234 218.335,290.518 219.522,290.864 220.842 C 291.211 222.162,291.824 224.912,292.226 226.953 C 292.708 229.396,292.888 229.930,292.751 228.516 C 292.444 225.316,290.234 216.266,290.234 218.205 M251.896 226.354 C 252.238 227.304,252.584 228.015,252.665 227.934 C 252.879 227.720,251.952 225.046,251.586 224.819 C 251.415 224.713,251.555 225.404,251.896 226.354 M253.469 232.117 C 253.649 233.201,253.704 233.256,253.827 232.474 C 253.907 231.966,253.811 231.389,253.615 231.193 C 253.398 230.976,253.341 231.340,253.469 232.117 M292.766 238.019 C 292.759 244.702,292.484 247.032,290.960 253.320 C 289.157 260.759,285.423 268.714,280.903 274.744 C 271.378 287.451,260.373 296.137,248.047 300.675 C 243.603 302.311,241.461 302.999,239.975 303.269 C 239.366 303.379,238.428 303.570,237.891 303.694 C 233.031 304.810,230.713 304.853,174.805 304.868 C 108.640 304.885,102.783 304.827,102.883 304.148 C 102.921 303.884,104.277 301.656,105.895 299.197 C 107.513 296.738,109.164 294.204,109.563 293.565 C 109.962 292.926,110.438 292.223,110.621 292.002 C 110.804 291.782,112.108 289.966,113.519 287.968 C 117.159 282.811,125.012 275.086,127.997 273.726 C 128.497 273.499,128.906 273.144,128.906 272.939 C 128.906 272.093,123.790 275.967,119.855 279.793 C 115.450 284.076,113.958 286.064,104.544 300.195 C 103.256 302.129,101.797 304.128,101.302 304.637 C 100.215 305.757,100.451 306.356,101.780 305.851 C 102.375 305.625,128.244 305.474,168.574 305.462 C 205.295 305.451,234.781 305.291,235.265 305.100 C 235.742 304.911,237.539 304.452,239.258 304.078 C 243.767 303.098,249.531 301.024,254.064 298.749 C 256.233 297.661,258.008 296.829,258.008 296.902 C 258.008 296.975,258.409 296.691,258.899 296.271 C 259.390 295.851,259.873 295.552,259.974 295.605 C 260.074 295.659,260.464 295.427,260.840 295.090 C 261.216 294.753,263.041 293.358,264.897 291.989 C 269.018 288.948,274.713 283.579,277.402 280.200 C 278.833 278.402,279.579 277.758,280.032 277.931 C 280.520 278.116,280.558 278.065,280.202 277.706 C 279.846 277.347,280.079 276.782,281.217 275.241 C 286.776 267.714,290.440 259.185,292.393 249.219 C 293.123 245.489,293.653 232.875,293.118 231.925 C 292.908 231.552,292.771 233.937,292.766 238.019 M252.226 244.410 C 251.839 245.658,251.443 246.943,251.347 247.266 C 251.251 247.588,251.620 246.901,252.168 245.740 C 252.715 244.578,253.111 243.293,253.047 242.884 C 252.981 242.468,252.619 243.142,252.226 244.410 M248.881 251.410 C 248.183 252.400,247.686 253.285,247.776 253.375 C 247.867 253.466,248.229 253.095,248.580 252.551 C 248.931 252.007,249.503 251.123,249.850 250.586 C 250.935 248.906,250.213 249.520,248.881 251.410 M244.523 256.355 C 239.649 261.012,236.131 263.012,229.688 264.790 L 225.977 265.814 186.328 265.817 C 164.521 265.819,146.592 265.920,146.484 266.043 C 146.377 266.165,144.772 266.559,142.918 266.918 C 141.063 267.277,138.778 267.911,137.839 268.328 C 135.775 269.244,136.347 269.377,138.720 268.533 C 144.077 266.628,142.941 266.678,186.133 266.411 C 223.116 266.182,226.968 266.099,229.102 265.480 C 234.508 263.911,238.827 261.857,241.797 259.439 C 244.158 257.517,247.825 253.905,247.406 253.913 C 247.221 253.917,245.924 255.016,244.523 256.355 M133.008 270.285 C 131.719 270.894,130.313 271.679,129.883 272.029 C 129.453 272.379,130.576 271.965,132.378 271.109 C 134.180 270.254,135.748 269.461,135.861 269.347 C 136.334 268.874,135.207 269.245,133.008 270.285 " stroke="none" fill="#054aa1" fill-rule="evenodd"></path></g></svg>